<svg width="39" height="39" viewBox="0 0 39 39" fill="none" xmlns="http://www.w3.org/2000/svg">
<g clip-path="url(#clip0_410_2667)">
<path fill-rule="evenodd" clip-rule="evenodd" d="M38.1875 18.8019C38.1875 8.41767 29.8212 0 19.5023 0C9.17878 0.00233565 0.8125 8.41767 0.8125 18.8043C0.8125 28.1866 7.6466 35.9643 16.5781 37.375V24.237H11.8367V18.8043H16.5828V14.6585C16.5828 9.94752 19.3739 7.34561 23.6411 7.34561C25.6871 7.34561 27.8242 7.7123 27.8242 7.7123V12.3369H25.4676C23.1483 12.3369 22.4242 13.7873 22.4242 15.2751V18.8019H27.6047L26.7779 24.2347H22.4219V37.3727C31.3534 35.9619 38.1875 28.1842 38.1875 18.8019Z" fill="white"/>
</g>
<defs>
<clipPath id="clip0_410_2667">
<rect width="39" height="39" fill="white"/>
</clipPath>
</defs>
</svg>
