<svg width="39" height="39" viewBox="0 0 39 39" fill="none" xmlns="http://www.w3.org/2000/svg">
<path d="M25.22 19.5C25.22 20.6313 24.8845 21.7372 24.256 22.6779C23.6275 23.6185 22.7341 24.3517 21.6889 24.7846C20.6438 25.2175 19.4937 25.3308 18.3841 25.1101C17.2745 24.8894 16.2553 24.3446 15.4553 23.5446C14.6554 22.7447 14.1106 21.7255 13.8899 20.6159C13.6692 19.5063 13.7825 18.3562 14.2154 17.311C14.6483 16.2659 15.3815 15.3725 16.3221 14.744C17.2628 14.1155 18.3687 13.78 19.5 13.78C21.0156 13.7847 22.4678 14.3889 23.5394 15.4606C24.6111 16.5322 25.2153 17.9844 25.22 19.5ZM37.375 11.635V27.365C37.375 30.0198 36.3204 32.5659 34.4431 34.4431C32.5659 36.3204 30.0198 37.375 27.365 37.375H11.635C8.98018 37.375 6.4341 36.3204 4.55686 34.4431C2.67962 32.5659 1.625 30.0198 1.625 27.365V11.635C1.625 8.98018 2.67962 6.4341 4.55686 4.55686C6.4341 2.67962 8.98018 1.625 11.635 1.625H27.365C30.0198 1.625 32.5659 2.67962 34.4431 4.55686C36.3204 6.4341 37.375 8.98018 37.375 11.635ZM28.08 19.5C28.08 17.803 27.5768 16.1442 26.634 14.7332C25.6912 13.3222 24.3512 12.2225 22.7834 11.5731C21.2156 10.9237 19.4905 10.7538 17.8261 11.0849C16.1618 11.4159 14.633 12.2331 13.433 13.433C12.2331 14.633 11.4159 16.1618 11.0849 17.8261C10.7538 19.4905 10.9237 21.2156 11.5731 22.7834C12.2225 24.3512 13.3222 25.6912 14.7332 26.634C16.1442 27.5768 17.803 28.08 19.5 28.08C21.7756 28.08 23.9579 27.176 25.567 25.567C27.176 23.9579 28.08 21.7756 28.08 19.5ZM30.94 10.205C30.94 9.78076 30.8142 9.36605 30.5785 9.0133C30.3428 8.66056 30.0078 8.38563 29.6159 8.22328C29.2239 8.06093 28.7926 8.01845 28.3765 8.10122C27.9604 8.18398 27.5782 8.38827 27.2783 8.68826C26.9783 8.98824 26.774 9.37044 26.6912 9.78653C26.6084 10.2026 26.6509 10.6339 26.8133 11.0259C26.9756 11.4178 27.2506 11.7528 27.6033 11.9885C27.956 12.2242 28.3708 12.35 28.795 12.35C29.3639 12.35 29.9095 12.124 30.3117 11.7217C30.714 11.3195 30.94 10.7739 30.94 10.205Z" fill="white"/>
</svg>
