<svg width="39" height="39" viewBox="0 0 39 39" fill="none" xmlns="http://www.w3.org/2000/svg">
<path fill-rule="evenodd" clip-rule="evenodd" d="M1.625 4.61175C1.625 3.81962 1.93967 3.05993 2.4998 2.4998C3.05992 1.93968 3.81962 1.625 4.61175 1.625H34.385C34.7776 1.62436 35.1664 1.70116 35.5292 1.85099C35.8921 2.00082 36.2218 2.22074 36.4995 2.49818C36.7773 2.77561 36.9975 3.10509 37.1478 3.46777C37.298 3.83045 37.3752 4.21919 37.375 4.61175V34.385C37.3754 34.7776 37.2984 35.1665 37.1484 35.5294C36.9984 35.8922 36.7783 36.2219 36.5008 36.4996C36.2232 36.7773 35.8936 36.9976 35.5309 37.1478C35.1681 37.298 34.7793 37.3752 34.3866 37.375H4.61175C4.21939 37.375 3.83087 37.2977 3.4684 37.1475C3.10592 36.9973 2.77659 36.7771 2.49922 36.4996C2.22186 36.2221 2.00189 35.8927 1.85189 35.5301C1.70188 35.1675 1.62479 34.779 1.625 34.3866V4.61175ZM15.7755 15.2555H20.6164V17.6865C21.3151 16.289 23.1026 15.0313 25.7887 15.0313C30.9384 15.0313 32.1588 17.8149 32.1588 22.9223V32.383H26.9474V24.0858C26.9474 21.177 26.2486 19.5358 24.4741 19.5358C22.0122 19.5358 20.9885 21.3054 20.9885 24.0858V32.383H15.7755V15.2555ZM6.838 32.1604H12.051V15.0313H6.838V32.1588V32.1604ZM12.7969 9.4445C12.8067 9.89085 12.7273 10.3347 12.5633 10.7499C12.3992 11.1651 12.1539 11.5434 11.8418 11.8626C11.5296 12.1817 11.1568 12.4353 10.7452 12.6084C10.3337 12.7815 9.89176 12.8707 9.44531 12.8707C8.99886 12.8707 8.55691 12.7815 8.14539 12.6084C7.73387 12.4353 7.36107 12.1817 7.04887 11.8626C6.73668 11.5434 6.49138 11.1651 6.32736 10.7499C6.16335 10.3347 6.08392 9.89085 6.09375 9.4445C6.11304 8.56839 6.47463 7.73466 7.10106 7.12187C7.7275 6.50907 8.56899 6.16593 9.44531 6.16593C10.3216 6.16593 11.1631 6.50907 11.7896 7.12187C12.416 7.73466 12.7776 8.56839 12.7969 9.4445Z" fill="white"/>
</svg>
