<svg width="24" height="36" viewBox="0 0 24 36" fill="none" xmlns="http://www.w3.org/2000/svg">
<path d="M12 21C10.5565 19.8032 9.21847 18.4911 7.99998 17.0775C6.17142 14.9546 4 11.793 4 8.7803C3.99838 5.63378 5.9477 2.79641 8.93834 1.59222C11.929 0.388034 15.3714 1.05438 17.6594 3.28032C19.1639 4.73625 20.0067 6.71671 20 8.7803C20 11.793 17.8285 14.9546 15.9999 17.0775C14.7814 18.4911 13.4435 19.8032 12 21ZM12 3.22589C8.84563 3.22956 6.28948 5.7142 6.2857 8.7803C6.2857 10.0756 6.88799 12.3185 9.75426 15.6522C10.4607 16.4721 11.2103 17.256 12 18.0006C12.7897 17.2568 13.5397 16.4741 14.2468 15.6555C17.1119 12.3173 17.7142 10.0745 17.7142 8.7803C17.7104 5.7142 15.1543 3.22956 12 3.22589ZM12 12.1129C10.1064 12.1129 8.57141 10.6209 8.57141 8.7803C8.57141 6.93973 10.1064 5.44765 12 5.44765C13.8935 5.44765 15.4285 6.93973 15.4285 8.7803C15.4285 9.66417 15.0673 10.5118 14.4243 11.1368C13.7813 11.7618 12.9093 12.1129 12 12.1129Z" fill="white"/>
</svg>
