<svg width="18" height="17" viewBox="0 0 18 17" fill="none" xmlns="http://www.w3.org/2000/svg">
<path d="M13.2071 10.7929C12.8166 10.4024 12.1834 10.4024 11.7929 10.7929C11.4024 11.1834 11.4024 11.8166 11.7929 12.2071L15.7929 16.2071C16.1834 16.5976 16.8166 16.5976 17.2071 16.2071C17.5976 15.8166 17.5976 15.1834 17.2071 14.7929L13.2071 10.7929Z" fill="#A3A3A3"/>
<path d="M12.5 7.5C12.5 10.2614 10.2614 12.5 7.5 12.5C4.73858 12.5 2.5 10.2614 2.5 7.5C2.5 4.73858 4.73858 2.5 7.5 2.5C10.2614 2.5 12.5 4.73858 12.5 7.5ZM14.5 7.5C14.5 3.63401 11.366 0.5 7.5 0.5C3.63401 0.5 0.5 3.63401 0.5 7.5C0.5 11.366 3.63401 14.5 7.5 14.5C11.366 14.5 14.5 11.366 14.5 7.5Z" fill="#A3A3A3"/>
</svg>
