<svg width="133" height="306" viewBox="0 0 133 306" fill="none" xmlns="http://www.w3.org/2000/svg">
<g opacity="0.2">
<path d="M101.541 271.539C110.86 271.539 118.572 279.286 118.572 288.647C118.572 298.008 110.86 305.755 101.541 305.755C92.2219 305.755 84.5098 298.008 84.5098 288.647C84.5098 278.963 92.2219 271.539 101.541 271.539ZM101.541 300.267C107.968 300.267 113.109 295.103 113.109 288.647C113.109 282.191 107.968 277.027 101.541 277.027C95.114 277.027 89.9726 282.191 89.9726 288.647C89.9726 295.103 95.114 300.267 101.541 300.267Z" fill="url(#paint0_linear_439_454)"/>
<path d="M40.1679 211.5C49.4868 211.5 57.199 219.247 57.199 228.608C57.199 237.969 49.4868 245.716 40.1679 245.716C30.849 245.716 23.1367 237.969 23.1367 228.608C23.1367 218.924 30.849 211.5 40.1679 211.5ZM40.1679 240.228C46.5947 240.228 51.7361 235.064 51.7361 228.608C51.7361 222.152 46.5947 216.987 40.1679 216.987C33.7411 216.987 28.5996 222.152 28.5996 228.608C28.5996 235.064 33.7411 240.228 40.1679 240.228Z" fill="#FFAA01"/>
<path d="M19.2817 155.66C20.8884 155.66 21.8524 156.951 21.8524 158.242V170.186C21.8524 171.8 20.5671 172.768 19.2817 172.768C17.675 172.768 16.7109 171.477 16.7109 170.186V158.242C16.7109 156.951 17.675 155.66 19.2817 155.66Z" fill="url(#paint1_linear_439_454)"/>
<path d="M19.2817 135C20.8884 135 21.8524 136.291 21.8524 137.582V149.526C21.8524 151.14 20.5671 152.108 19.2817 152.108C17.675 152.108 16.7109 150.817 16.7109 149.526V137.582C16.7109 136.291 17.675 135 19.2817 135Z" fill="url(#paint2_linear_439_454)"/>
<path d="M2.5707 151.141H13.1749C14.7817 151.141 15.7457 152.432 15.7457 153.723C15.7457 155.014 14.4603 156.305 13.1749 156.305H2.5707C0.963987 156.305 0 155.014 0 153.723C0 152.432 1.28533 151.141 2.5707 151.141Z" fill="url(#paint3_linear_439_454)"/>
<path d="M25.0629 151.141H35.6671C37.2738 151.141 38.2379 152.432 38.2379 153.723C38.2379 155.014 36.9525 156.305 35.6671 156.305H25.0629C23.4562 156.305 22.4922 155.014 22.4922 153.723C22.4922 152.432 23.7775 151.141 25.0629 151.141Z" fill="url(#paint4_linear_439_454)"/>
<path d="M113.433 222.156C115.039 222.156 116.003 223.447 116.003 224.739V236.682C116.003 238.296 114.718 239.264 113.433 239.264C111.826 239.264 110.862 237.973 110.862 236.682V224.739C110.541 223.125 111.826 222.156 113.433 222.156Z" fill="#FFAA01"/>
<path d="M113.433 201.496C115.039 201.496 116.003 202.787 116.003 204.078V216.022C116.003 217.636 114.718 218.604 113.433 218.604C111.826 218.604 110.862 217.313 110.862 216.022V204.078C110.541 202.464 111.826 201.496 113.433 201.496Z" fill="#FFAA01"/>
<path d="M96.725 217.637H107.329C108.936 217.637 109.9 218.928 109.9 220.219C109.9 221.833 108.615 222.801 107.329 222.801H96.725C95.1183 222.801 94.1543 221.51 94.1543 220.219C94.1543 218.928 95.4396 217.637 96.725 217.637Z" fill="#FFAA01"/>
<path d="M119.219 217.637H129.823C131.43 217.637 132.394 218.928 132.394 220.219C132.394 221.833 131.109 222.801 129.823 222.801H119.219C117.612 222.801 116.648 221.51 116.648 220.219C116.648 218.928 117.934 217.637 119.219 217.637Z" fill="#FFAA01"/>
</g>
<g opacity="0.2">
<path d="M30.8947 34.2261C21.5758 34.2232 13.8659 26.4738 13.8689 17.1129C13.8718 7.75194 21.5865 0.00736314 30.9054 0.0102776C40.2243 0.0131922 47.9341 7.7626 47.9311 17.1235C47.9281 26.8073 40.2136 34.229 30.8947 34.2261ZM30.9037 5.49771C24.4768 5.4957 19.3337 10.6588 19.3317 17.1146C19.3297 23.5704 24.4696 28.7367 30.8964 28.7387C37.3233 28.7407 42.4663 23.5776 42.4683 17.1218C42.4703 10.666 37.3305 5.49972 30.9037 5.49771Z" fill="url(#paint5_linear_439_454)"/>
<path d="M92.2481 94.2847C82.9292 94.2818 75.2195 86.5324 75.2224 77.1715C75.2253 67.8105 82.9399 60.0659 92.2588 60.0689C101.578 60.0718 109.288 67.8212 109.285 77.1821C109.282 86.8658 101.567 94.2876 92.2481 94.2847ZM92.2571 65.5563C85.8303 65.5543 80.6873 70.7174 80.6852 77.1732C80.6832 83.629 85.823 88.7953 92.2498 88.7973C98.6767 88.7993 103.82 83.6362 103.822 77.1804C103.824 70.7246 98.6839 65.5583 92.2571 65.5563Z" fill="#FFAA01"/>
<path d="M113.117 150.133C111.51 150.132 110.546 148.841 110.547 147.55L110.551 135.607C110.551 133.993 111.837 133.025 113.122 133.025C114.729 133.026 115.692 134.317 115.692 135.608L115.688 147.551C115.688 148.843 114.723 150.133 113.117 150.133Z" fill="url(#paint6_linear_439_454)"/>
<path d="M113.111 170.793C111.504 170.793 110.541 169.501 110.541 168.21L110.545 156.267C110.545 154.653 111.831 153.685 113.116 153.685C114.723 153.686 115.687 154.977 115.686 156.268L115.682 168.212C115.682 169.503 114.718 170.794 113.111 170.793Z" fill="url(#paint7_linear_439_454)"/>
<path d="M129.828 154.656L119.223 154.653C117.617 154.653 116.653 153.361 116.654 152.07C116.654 150.779 117.94 149.488 119.225 149.488L129.829 149.492C131.436 149.492 132.4 150.784 132.399 152.075C132.399 153.366 131.113 154.657 129.828 154.656Z" fill="url(#paint8_linear_439_454)"/>
<path d="M107.336 154.649L96.7313 154.645C95.1246 154.645 94.1609 153.353 94.1613 152.062C94.1617 150.771 95.4476 149.48 96.7329 149.481L107.337 149.484C108.944 149.484 109.907 150.776 109.907 152.067C109.907 153.358 108.621 154.649 107.336 154.649Z" fill="url(#paint9_linear_439_454)"/>
<path d="M18.9872 83.6095C17.3804 83.609 16.4169 82.3176 16.4173 81.0264L16.421 69.0831C16.4215 67.4692 17.7071 66.5012 18.9925 66.5016C20.5992 66.5021 21.5628 67.7936 21.5624 69.0847L21.5587 81.028C21.8795 82.6421 20.5939 83.61 18.9872 83.6095Z" fill="#FFAA01"/>
<path d="M18.9813 104.27C17.3746 104.269 16.411 102.978 16.4114 101.687L16.4151 89.7433C16.4156 88.1293 17.7013 87.1614 18.9866 87.1618C20.5934 87.1623 21.5569 88.4537 21.5565 89.7449L21.5528 101.688C21.8736 103.302 20.588 104.27 18.9813 104.27Z" fill="#FFAA01"/>
<path d="M35.6949 88.133L25.0906 88.1297C23.4839 88.1292 22.5203 86.8377 22.5207 85.5465C22.5212 83.9326 23.8068 82.9646 25.0922 82.965L35.6965 82.9683C37.3033 82.9688 38.2668 84.2603 38.2664 85.5515C38.266 86.8426 36.9803 88.1334 35.6949 88.133Z" fill="#FFAA01"/>
<path d="M13.2008 88.1252L2.59645 88.1219C0.989736 88.1214 0.026154 86.8299 0.0265578 85.5387C0.0270625 83.9248 1.31269 82.9568 2.59806 82.9572L13.2024 82.9605C14.8091 82.961 15.7727 84.2525 15.7723 85.5437C15.7719 86.8348 14.4862 88.1256 13.2008 88.1252Z" fill="#FFAA01"/>
</g>
<defs>
<linearGradient id="paint0_linear_439_454" x1="101.541" y1="271.539" x2="101.541" y2="305.755" gradientUnits="userSpaceOnUse">
<stop stop-color="#7DE373"/>
<stop offset="0.479167" stop-color="#49D0AF"/>
<stop offset="1" stop-color="#12BEEC"/>
</linearGradient>
<linearGradient id="paint1_linear_439_454" x1="19.2817" y1="155.66" x2="19.2817" y2="172.768" gradientUnits="userSpaceOnUse">
<stop stop-color="#7DE373"/>
<stop offset="0.479167" stop-color="#49D0AF"/>
<stop offset="1" stop-color="#12BEEC"/>
</linearGradient>
<linearGradient id="paint2_linear_439_454" x1="19.2817" y1="135" x2="19.2817" y2="152.108" gradientUnits="userSpaceOnUse">
<stop stop-color="#7DE373"/>
<stop offset="0.479167" stop-color="#49D0AF"/>
<stop offset="1" stop-color="#12BEEC"/>
</linearGradient>
<linearGradient id="paint3_linear_439_454" x1="7.87287" y1="151.141" x2="7.87287" y2="156.305" gradientUnits="userSpaceOnUse">
<stop stop-color="#7DE373"/>
<stop offset="0.479167" stop-color="#49D0AF"/>
<stop offset="1" stop-color="#12BEEC"/>
</linearGradient>
<linearGradient id="paint4_linear_439_454" x1="30.3651" y1="151.141" x2="30.3651" y2="156.305" gradientUnits="userSpaceOnUse">
<stop stop-color="#7DE373"/>
<stop offset="0.479167" stop-color="#49D0AF"/>
<stop offset="1" stop-color="#12BEEC"/>
</linearGradient>
<linearGradient id="paint5_linear_439_454" x1="30.8946" y1="34.2261" x2="30.9053" y2="0.0102776" gradientUnits="userSpaceOnUse">
<stop stop-color="#7DE373"/>
<stop offset="0.479167" stop-color="#49D0AF"/>
<stop offset="1" stop-color="#12BEEC"/>
</linearGradient>
<linearGradient id="paint6_linear_439_454" x1="113.117" y1="150.133" x2="113.122" y2="133.025" gradientUnits="userSpaceOnUse">
<stop stop-color="#7DE373"/>
<stop offset="0.479167" stop-color="#49D0AF"/>
<stop offset="1" stop-color="#12BEEC"/>
</linearGradient>
<linearGradient id="paint7_linear_439_454" x1="113.111" y1="170.793" x2="113.116" y2="153.685" gradientUnits="userSpaceOnUse">
<stop stop-color="#7DE373"/>
<stop offset="0.479167" stop-color="#49D0AF"/>
<stop offset="1" stop-color="#12BEEC"/>
</linearGradient>
<linearGradient id="paint8_linear_439_454" x1="124.526" y1="154.655" x2="124.527" y2="149.49" gradientUnits="userSpaceOnUse">
<stop stop-color="#7DE373"/>
<stop offset="0.479167" stop-color="#49D0AF"/>
<stop offset="1" stop-color="#12BEEC"/>
</linearGradient>
<linearGradient id="paint9_linear_439_454" x1="102.033" y1="154.647" x2="102.035" y2="149.482" gradientUnits="userSpaceOnUse">
<stop stop-color="#7DE373"/>
<stop offset="0.479167" stop-color="#49D0AF"/>
<stop offset="1" stop-color="#12BEEC"/>
</linearGradient>
</defs>
</svg>
