<svg width="39" height="33" viewBox="0 0 39 33" fill="none" xmlns="http://www.w3.org/2000/svg">
<g clip-path="url(#clip0_410_2670)">
<path d="M13.6675 30.9336C27.1586 30.9336 34.5388 19.6774 34.5388 9.93321C34.5388 9.61823 34.5388 9.29875 34.5254 8.98376C35.9622 7.93641 37.2023 6.63973 38.1875 5.15447C36.8453 5.75035 35.423 6.14308 33.9668 6.31991C35.5007 5.39664 36.6496 3.94396 37.1999 2.23187C35.7587 3.09161 34.1813 3.69514 32.5368 4.01603C31.4312 2.8304 29.9681 2.04495 28.3743 1.78135C26.7805 1.51776 25.1448 1.79072 23.7207 2.55797C22.2965 3.32521 21.1634 4.54392 20.4967 6.02531C19.8301 7.5067 19.6672 9.1681 20.0332 10.7522C17.1168 10.6049 14.2636 9.84202 11.6589 8.51296C9.05409 7.1839 6.75584 5.31836 4.91319 3.03733C3.97774 4.66418 3.69227 6.58854 4.11472 8.41964C4.53718 10.2507 5.63591 11.8513 7.18778 12.8963C6.02488 12.8565 4.88754 12.5421 3.8675 11.9784V12.0796C3.86951 13.7838 4.45583 15.4351 5.52736 16.7543C6.59889 18.0735 8.08991 18.9797 9.74837 19.3197C9.11887 19.4943 8.46859 19.5814 7.81564 19.5784C7.35532 19.5799 6.89593 19.5369 6.44373 19.4502C6.91248 20.9173 7.82519 22.1999 9.05404 23.1186C10.2829 24.0372 11.7663 24.5458 13.2966 24.5732C10.697 26.6291 7.48585 27.7442 4.18031 27.7388C3.59786 27.7412 3.01581 27.7074 2.4375 27.6375C5.79245 29.7912 9.68871 30.9348 13.6675 30.9336Z" fill="white"/>
</g>
<defs>
<clipPath id="clip0_410_2670">
<rect width="39" height="32.1176" fill="white" transform="translate(0 0.441406)"/>
</clipPath>
</defs>
</svg>
